<svg id="visual" viewBox="0 0 900 600" width="900" height="600" xmlns="http://www.w3.org/2000/svg" xmlns:xlink="http://www.w3.org/1999/xlink" version="1.1"><path d="M0 223L82 223L82 205L164 205L164 199L245 199L245 103L327 103L327 163L409 163L409 205L491 205L491 241L573 241L573 181L655 181L655 103L736 103L736 247L818 247L818 187L900 187L900 139L900 0L900 0L818 0L818 0L736 0L736 0L655 0L655 0L573 0L573 0L491 0L491 0L409 0L409 0L327 0L327 0L245 0L245 0L164 0L164 0L82 0L82 0L0 0Z" fill="#b0235f"></path><path d="M0 415L82 415L82 349L164 349L164 283L245 283L245 313L327 313L327 379L409 379L409 361L491 361L491 415L573 415L573 343L655 343L655 301L736 301L736 367L818 367L818 373L900 373L900 343L900 137L900 185L818 185L818 245L736 245L736 101L655 101L655 179L573 179L573 239L491 239L491 203L409 203L409 161L327 161L327 101L245 101L245 197L164 197L164 203L82 203L82 221L0 221Z" fill="#c43462"></path><path d="M0 457L82 457L82 451L164 451L164 367L245 367L245 427L327 427L327 475L409 475L409 433L491 433L491 487L573 487L573 415L655 415L655 391L736 391L736 481L818 481L818 451L900 451L900 403L900 341L900 371L818 371L818 365L736 365L736 299L655 299L655 341L573 341L573 413L491 413L491 359L409 359L409 377L327 377L327 311L245 311L245 281L164 281L164 347L82 347L82 413L0 413Z" fill="#d74565"></path><path d="M0 517L82 517L82 487L164 487L164 463L245 463L245 523L327 523L327 553L409 553L409 499L491 499L491 541L573 541L573 451L655 451L655 445L736 445L736 517L818 517L818 517L900 517L900 439L900 401L900 449L818 449L818 479L736 479L736 389L655 389L655 413L573 413L573 485L491 485L491 431L409 431L409 473L327 473L327 425L245 425L245 365L164 365L164 449L82 449L82 455L0 455Z" fill="#e95767"></path><path d="M0 601L82 601L82 601L164 601L164 601L245 601L245 601L327 601L327 601L409 601L409 601L491 601L491 601L573 601L573 601L655 601L655 601L736 601L736 601L818 601L818 601L900 601L900 601L900 437L900 515L818 515L818 515L736 515L736 443L655 443L655 449L573 449L573 539L491 539L491 497L409 497L409 551L327 551L327 521L245 521L245 461L164 461L164 485L82 485L82 515L0 515Z" fill="#fa6969"></path></svg>