<svg id="visual" viewBox="0 0 2048 1034" width="2048" height="1034" xmlns="http://www.w3.org/2000/svg" xmlns:xlink="http://www.w3.org/1999/xlink" version="1.1"><rect x="0" y="0" width="2048" height="1034" fill="#002233"></rect><defs><linearGradient id="grad1_0" x1="49.5%" y1="0%" x2="100%" y2="100%"><stop offset="10.386847195357833%" stop-color="#002233" stop-opacity="1"></stop><stop offset="89.61315280464217%" stop-color="#002233" stop-opacity="1"></stop></linearGradient></defs><defs><linearGradient id="grad2_0" x1="0%" y1="0%" x2="50.5%" y2="100%"><stop offset="10.386847195357833%" stop-color="#002233" stop-opacity="1"></stop><stop offset="89.61315280464217%" stop-color="#002233" stop-opacity="1"></stop></linearGradient></defs><g transform="translate(2048, 0)"><path d="M0 930.6C-89.2 850.7 -178.4 770.9 -307.3 741.9C-436.2 712.9 -604.8 734.8 -658 658C-711.3 581.3 -649.2 405.9 -675.4 279.7C-701.6 153.6 -816.1 76.8 -930.6 0L0 0Z" fill="#FFF"></path></g><g transform="translate(0, 1034)"><path d="M0 -930.6C69 -786.3 137.9 -642.1 254.1 -613.5C370.3 -584.8 533.7 -671.9 646.3 -646.3C758.9 -620.7 820.8 -482.6 859.8 -356.1C898.7 -229.6 914.6 -114.8 930.6 0L0 0Z" fill="#FFF"></path></g></svg>