<svg id="visual" viewBox="0 0 900 600" width="900" height="600" xmlns="http://www.w3.org/2000/svg" xmlns:xlink="http://www.w3.org/1999/xlink" version="1.1"><path d="M0 115L13.7 121C27.3 127 54.7 139 82 136C109.3 133 136.7 115 163.8 110C191 105 218 113 245.2 109C272.3 105 299.7 89 327 78C354.3 67 381.7 61 409 70C436.3 79 463.7 103 491 105C518.3 107 545.7 87 573 88C600.3 89 627.7 111 654.8 120C682 129 709 125 736.2 127C763.3 129 790.7 137 818 128C845.3 119 872.7 93 886.3 80L900 67L900 0L886.3 0C872.7 0 845.3 0 818 0C790.7 0 763.3 0 736.2 0C709 0 682 0 654.8 0C627.7 0 600.3 0 573 0C545.7 0 518.3 0 491 0C463.7 0 436.3 0 409 0C381.7 0 354.3 0 327 0C299.7 0 272.3 0 245.2 0C218 0 191 0 163.8 0C136.7 0 109.3 0 82 0C54.7 0 27.3 0 13.7 0L0 0Z" fill="#6198ff"></path><path d="M0 217L13.7 231C27.3 245 54.7 273 82 288C109.3 303 136.7 305 163.8 294C191 283 218 259 245.2 254C272.3 249 299.7 263 327 262C354.3 261 381.7 245 409 250C436.3 255 463.7 281 491 294C518.3 307 545.7 307 573 300C600.3 293 627.7 279 654.8 274C682 269 709 273 736.2 291C763.3 309 790.7 341 818 349C845.3 357 872.7 341 886.3 333L900 325L900 65L886.3 78C872.7 91 845.3 117 818 126C790.7 135 763.3 127 736.2 125C709 123 682 127 654.8 118C627.7 109 600.3 87 573 86C545.7 85 518.3 105 491 103C463.7 101 436.3 77 409 68C381.7 59 354.3 65 327 76C299.7 87 272.3 103 245.2 107C218 111 191 103 163.8 108C136.7 113 109.3 131 82 134C54.7 137 27.3 125 13.7 119L0 113Z" fill="#3c80ff"></path><path d="M0 301L13.7 311C27.3 321 54.7 341 82 350C109.3 359 136.7 357 163.8 349C191 341 218 327 245.2 329C272.3 331 299.7 349 327 350C354.3 351 381.7 335 409 337C436.3 339 463.7 359 491 368C518.3 377 545.7 375 573 371C600.3 367 627.7 361 654.8 353C682 345 709 335 736.2 349C763.3 363 790.7 401 818 412C845.3 423 872.7 407 886.3 399L900 391L900 323L886.3 331C872.7 339 845.3 355 818 347C790.7 339 763.3 307 736.2 289C709 271 682 267 654.8 272C627.7 277 600.3 291 573 298C545.7 305 518.3 305 491 292C463.7 279 436.3 253 409 248C381.7 243 354.3 259 327 260C299.7 261 272.3 247 245.2 252C218 257 191 281 163.8 292C136.7 303 109.3 301 82 286C54.7 271 27.3 243 13.7 229L0 215Z" fill="#0066ff"></path><path d="M0 385L13.7 392C27.3 399 54.7 413 82 429C109.3 445 136.7 463 163.8 451C191 439 218 397 245.2 394C272.3 391 299.7 427 327 441C354.3 455 381.7 447 409 446C436.3 445 463.7 451 491 449C518.3 447 545.7 437 573 440C600.3 443 627.7 459 654.8 455C682 451 709 427 736.2 430C763.3 433 790.7 463 818 481C845.3 499 872.7 505 886.3 508L900 511L900 389L886.3 397C872.7 405 845.3 421 818 410C790.7 399 763.3 361 736.2 347C709 333 682 343 654.8 351C627.7 359 600.3 365 573 369C545.7 373 518.3 375 491 366C463.7 357 436.3 337 409 335C381.7 333 354.3 349 327 348C299.7 347 272.3 329 245.2 327C218 325 191 339 163.8 347C136.7 355 109.3 357 82 348C54.7 339 27.3 319 13.7 309L0 299Z" fill="#0059dd"></path><path d="M0 601L13.7 601C27.3 601 54.7 601 82 601C109.3 601 136.7 601 163.8 601C191 601 218 601 245.2 601C272.3 601 299.7 601 327 601C354.3 601 381.7 601 409 601C436.3 601 463.7 601 491 601C518.3 601 545.7 601 573 601C600.3 601 627.7 601 654.8 601C682 601 709 601 736.2 601C763.3 601 790.7 601 818 601C845.3 601 872.7 601 886.3 601L900 601L900 509L886.3 506C872.7 503 845.3 497 818 479C790.7 461 763.3 431 736.2 428C709 425 682 449 654.8 453C627.7 457 600.3 441 573 438C545.7 435 518.3 445 491 447C463.7 449 436.3 443 409 444C381.7 445 354.3 453 327 439C299.7 425 272.3 389 245.2 392C218 395 191 437 163.8 449C136.7 461 109.3 443 82 427C54.7 411 27.3 397 13.7 390L0 383Z" fill="#004cbb"></path></svg>