<svg id="visual" viewBox="0 0 900 600" width="900" height="600" xmlns="http://www.w3.org/2000/svg" xmlns:xlink="http://www.w3.org/1999/xlink" version="1.1"><path d="M0 139L25 134C50 129 100 119 150 133C200 147 250 185 300 196C350 207 400 191 450 182C500 173 550 171 600 174C650 177 700 185 750 195C800 205 850 217 875 223L900 229L900 0L875 0C850 0 800 0 750 0C700 0 650 0 600 0C550 0 500 0 450 0C400 0 350 0 300 0C250 0 200 0 150 0C100 0 50 0 25 0L0 0Z" fill="#002233"></path><path d="M0 235L25 227C50 219 100 203 150 213C200 223 250 259 300 272C350 285 400 275 450 271C500 267 550 269 600 270C650 271 700 271 750 276C800 281 850 291 875 296L900 301L900 227L875 221C850 215 800 203 750 193C700 183 650 175 600 172C550 169 500 171 450 180C400 189 350 205 300 194C250 183 200 145 150 131C100 117 50 127 25 132L0 137Z" fill="#062aac"></path><path d="M0 295L25 286C50 277 100 259 150 268C200 277 250 313 300 327C350 341 400 333 450 326C500 319 550 313 600 312C650 311 700 315 750 323C800 331 850 343 875 349L900 355L900 299L875 294C850 289 800 279 750 274C700 269 650 269 600 268C550 267 500 265 450 269C400 273 350 283 300 270C250 257 200 221 150 211C100 201 50 217 25 225L0 233Z" fill="#0b39c0"></path><path d="M0 403L25 399C50 395 100 387 150 390C200 393 250 407 300 418C350 429 400 437 450 434C500 431 550 417 600 408C650 399 700 395 750 400C800 405 850 419 875 426L900 433L900 353L875 347C850 341 800 329 750 321C700 313 650 309 600 310C550 311 500 317 450 324C400 331 350 339 300 325C250 311 200 275 150 266C100 257 50 275 25 284L0 293Z" fill="#0c47d4"></path><path d="M0 523L25 527C50 531 100 539 150 543C200 547 250 547 300 547C350 547 400 547 450 542C500 537 550 527 600 526C650 525 700 533 750 535C800 537 850 533 875 531L900 529L900 431L875 424C850 417 800 403 750 398C700 393 650 397 600 406C550 415 500 429 450 432C400 435 350 427 300 416C250 405 200 391 150 388C100 385 50 393 25 397L0 401Z" fill="#0957ea"></path><path d="M0 601L25 601C50 601 100 601 150 601C200 601 250 601 300 601C350 601 400 601 450 601C500 601 550 601 600 601C650 601 700 601 750 601C800 601 850 601 875 601L900 601L900 527L875 529C850 531 800 535 750 533C700 531 650 523 600 524C550 525 500 535 450 540C400 545 350 545 300 545C250 545 200 545 150 541C100 537 50 529 25 525L0 521Z" fill="#0066ff"></path></svg>